<?xml version="1.0" encoding="UTF-8" standalone="no"?>
<!-- Created with Inkscape (http://www.inkscape.org/) -->

<svg
   xmlns:dc="http://purl.org/dc/elements/1.1/"
   xmlns:cc="http://creativecommons.org/ns#"
   xmlns:rdf="http://www.w3.org/1999/02/22-rdf-syntax-ns#"
   xmlns:svg="http://www.w3.org/2000/svg"
   xmlns="http://www.w3.org/2000/svg"
   xmlns:sodipodi="http://sodipodi.sourceforge.net/DTD/sodipodi-0.dtd"
   xmlns:inkscape="http://www.inkscape.org/namespaces/inkscape"
   width="210mm"
   height="297mm"
   viewBox="0 0 210 297"
   version="1.1"
   id="svg5097"
   inkscape:version="0.92.3 (2405546, 2018-03-11)"
   sodipodi:docname="botherface.svg">
  <defs
     id="defs5091" />
  <sodipodi:namedview
     id="base"
     pagecolor="#ffffff"
     bordercolor="#666666"
     borderopacity="1.0"
     inkscape:pageopacity="0.0"
     inkscape:pageshadow="2"
     inkscape:zoom="0.35"
     inkscape:cx="-75.714286"
     inkscape:cy="560"
     inkscape:document-units="mm"
     inkscape:current-layer="layer1"
     showgrid="false"
     inkscape:pagecheckerboard="true"
     inkscape:window-width="3440"
     inkscape:window-height="1377"
     inkscape:window-x="2552"
     inkscape:window-y="1018"
     inkscape:window-maximized="1" />
  <metadata
     id="metadata5094">
    <rdf:RDF>
      <cc:Work
         rdf:about="">
        <dc:format>image/svg+xml</dc:format>
        <dc:type
           rdf:resource="http://purl.org/dc/dcmitype/StillImage" />
        <dc:title></dc:title>
      </cc:Work>
    </rdf:RDF>
  </metadata>
  <g
     inkscape:label="Layer 1"
     inkscape:groupmode="layer"
     id="layer1">
    <path
       style="fill:#000000;stroke-width:0.26458332"
       d="m 17.095626,154.81481 c 0.0979,-25.7846 0.26375,-42.89627 0.42949,-44.31709 0.34454,-2.95374 0.82875,-4.16781 1.66226,-4.16781 0.94607,0 8.3737,1.68434 15.19247,3.44515 3.36935,0.87007 6.58404,1.57932 7.14375,1.57613 1.64631,-0.009 2.97866,-0.81487 5.86136,-3.54347 3.77483,-3.57304 4.51463,-3.81014 8.73294,-2.79887 2.79549,0.67018 3.276,0.66186 3.93092,-0.068 1.50073,-1.67245 5.72331,-10.072582 6.18766,-12.309324 0.16305,-0.785445 0.58305,-2.2707 0.93334,-3.300569 0.35028,-1.029869 0.87056,-3.491447 1.15617,-5.47017 0.85508,-5.923926 2.39353,-9.83115 5.15067,-13.081241 1.87643,-2.211917 2.22094,-2.937875 3.8467,-8.105881 1.97821,-6.28836 2.76927,-8.405489 4.6959,-12.567708 3.42542,-7.400178 3.75535,-7.980743 5.82693,-10.253302 1.09402,-1.200163 2.63531,-3.047331 3.42509,-4.10482 1.08779,-1.456518 2.33249,-2.61125 5.13355,-4.7625 2.03367,-1.561886 4.498054,-3.283075 5.476384,-3.824865 2.14157,-1.185973 7.33241,-2.924892 10.50657,-3.519678 2.0982,-0.393168 2.5272,-0.395761 4.72741,-0.0286 5.77231,0.963269 9.667,1.146157 11.90239,0.558917 0.5546,-0.145693 1.02562,-0.04322 1.79878,0.391321 0.87087,0.489453 1.52478,0.600363 3.87888,0.6579 2.50986,0.06134 3.07181,0.168322 4.94809,0.941998 1.29404,0.533594 2.60633,0.882918 3.37659,0.898838 1.08743,0.02246 1.34331,-0.07847 1.86886,-0.737246 0.54093,-0.678056 0.76484,-0.759772 2.00521,-0.731827 2.3052,0.05194 9.81724,2.047269 10.23159,2.717694 0.0867,0.140206 0.5939,0.430573 1.12723,0.645261 0.65035,0.261798 1.35696,0.921234 2.14567,2.002428 0.6468,0.886648 1.65883,1.914723 2.24896,2.284616 0.59013,0.36989 2.1183,1.54695 3.39593,2.615681 2.92954,2.450558 3.22006,2.637102 5.26038,3.377748 0.92239,0.334835 2.44566,1.105821 3.38503,1.713304 0.93938,0.607486 2.01094,1.165077 2.38125,1.239097 1.43666,0.28716 2.91797,1.281885 4.9892,3.350342 2.32391,2.320795 3.66082,4.072886 6.98233,9.150722 2.59172,3.962165 2.69893,4.475234 1.66755,7.980593 -0.64256,2.183857 -0.74282,3.071659 -0.92295,8.17236 -0.23301,6.59798 -0.4832,7.80339 -1.7782,8.567462 -0.63034,0.371906 -0.87193,0.704855 -0.87193,1.201671 v 0.687226 l -0.92604,-0.897554 c -0.50932,-0.493654 -0.92604,-0.759724 -0.92604,-0.591267 0,0.395513 -1.98617,0.932929 -2.65884,0.719431 -0.28389,-0.0901 -0.51616,-0.313639 -0.51616,-0.496747 0,-0.513826 -1.16,-1.4835 -1.77468,-1.4835 -0.71764,0 -0.8451,0.389321 -1.1397,3.481147 -0.164,1.721254 -0.47206,3.12258 -0.92088,4.188912 -0.37093,0.881309 -0.74337,2.16522 -0.82764,2.85314 -0.0843,0.687916 -0.37928,1.57336 -0.65557,1.96765 -1.2016,1.714733 -0.0673,4.507728 2.54035,6.254936 0.73403,0.491831 1.2877,1.053912 1.2438,1.262705 -0.0435,0.206965 0.11853,0.573934 0.36008,0.815488 0.33605,0.33605 0.40127,0.715821 0.27773,1.617201 -0.27633,2.01602 -2.21919,7.78855 -3.08855,9.17653 -1.51819,2.42389 -3.44823,4.10104 -4.71942,4.10104 -0.29077,0 -0.84985,0.29766 -1.2424,0.66146 -0.39255,0.3638 -0.92582,0.66146 -1.18505,0.66146 -1.21505,0 -2.08526,2.41213 -2.7497,7.62187 -0.35631,2.79376 -0.83258,4.5412 -3.35321,12.30313 -3.2914,10.13539 -3.83527,11.45346 -6.64095,16.0946 -1.08758,1.79906 -3.05798,5.23556 -4.37867,7.63665 -3.76621,6.8472 -5.25499,9.56048 -5.96864,10.87775 -1.0209,1.88442 -3.56322,3.60973 -9.83002,6.67105 l -5.55625,2.7142 -6.35,-0.16842 c -5.59086,-0.14829 -6.53771,-0.23692 -7.92013,-0.74133 -2.11491,-0.77167 -4.86298,-2.2939 -5.85941,-3.24567 -1.4342,-1.36993 -3.22231,-1.85606 -7.72099,-2.09911 -2.22092,-0.11998 -4.43693,-0.3624 -4.924474,-0.5387 -0.83401,-0.30158 -0.95989,-0.26445 -2.12829,0.62769 -1.38643,1.05862 -2.68589,1.46873 -3.15672,0.99627 -0.2299,-0.2307 -0.1424,-0.42878 0.35688,-0.80789 0.63818,-0.48458 0.6446,-0.519 0.18227,-0.97791 -0.46127,-0.45785 -0.49343,-0.45644 -0.8599,0.0379 -0.58343,0.78708 -0.45928,1.7757 0.43752,3.48402 0.45003,0.85725 1.0531,2.01544 1.34017,2.57375 0.28707,0.5583 0.79984,2.35524 1.1395,3.99319 0.70983,3.42303 1.35783,4.86797 2.61214,5.82469 1.395154,1.06413 2.983204,1.2396 5.406514,0.59739 2.46042,-0.65204 3.35445,-0.50351 3.9809,0.66137 1.08467,2.01692 3.88182,4.18013 5.40515,4.18013 0.68928,0 1.96561,0.69353 3.4752,1.88834 l 1.29133,1.02207 H 68.071686 16.936126 Z m 108.674464,13.49375 c 0.89263,-0.8393 1.0936,-1.2318 1.30427,-2.54717 0.4316,-2.69479 1.72885,-3.76212 2.371,-1.95075 0.27735,0.78235 0.33587,0.81832 0.6489,0.39889 0.18922,-0.25356 0.41459,-1.21641 0.5008,-2.13968 0.17656,-1.89064 0.58517,-2.98184 1.20577,-3.21999 0.52886,-0.20294 1.09428,0.53719 1.09967,1.43948 0.002,0.37237 0.12371,0.85562 0.26996,1.07391 0.22716,0.33903 0.34128,0.30703 0.78311,-0.21961 1.22305,-1.45784 1.34285,-3.76758 0.39775,-7.66861 -0.36361,-1.50085 -0.66112,-2.84336 -0.66112,-2.98335 0,-0.13999 0.36359,-0.0665 0.80798,0.1633 0.44438,0.2298 1.42665,0.48078 2.18281,0.55773 2.07717,0.21139 2.79551,0.57892 3.38327,1.73102 0.34654,0.67927 0.67947,1.00406 0.97824,0.95431 0.30166,-0.0502 0.45291,0.10129 0.45291,0.45375 0,0.40388 -0.17639,0.52916 -0.74504,0.52916 -1.02801,0 -1.34034,0.68093 -1.14956,2.50623 0.29468,2.81934 0.67005,3.05173 1.61447,0.9995 0.35157,-0.76398 1.47743,-2.33783 2.50189,-3.49744 1.06477,-1.20525 1.93379,-2.45195 2.02872,-2.91042 0.0913,-0.44112 0.70898,-2.08571 1.37255,-3.65465 l 1.20649,-2.85261 -0.63664,-1.37455 c -1.10535,-2.38656 -2.51689,-4.27364 -3.68975,-4.93283 -1.04453,-0.58705 -1.26571,-0.61018 -4.18423,-0.43754 -2.93515,0.17362 -3.15059,0.1505 -4.53908,-0.48706 -0.80172,-0.36812 -2.31802,-0.8503 -3.36955,-1.07149 -1.05152,-0.2212 -2.53869,-0.75504 -3.30482,-1.1863 -0.84276,-0.47441 -2.12449,-0.89922 -3.24503,-1.07551 -1.11894,-0.17604 -2.2426,-0.54819 -2.8386,-0.94013 -1.146,-0.75361 -1.63944,-0.79586 -2.94143,-0.25186 -0.52242,0.21828 -1.24714,0.39687 -1.6105,0.39687 -0.86006,0 -1.10814,0.52265 -1.33393,2.81039 -0.15566,1.57714 -0.34656,2.11632 -1.17097,3.30729 -1.14325,1.65158 -1.74352,1.84569 -3.31279,1.07128 -1.25112,-0.6174 -3.30719,-0.95637 -3.80063,-0.62657 -0.59567,0.39811 -0.70172,2.01529 -0.16721,2.54979 0.34416,0.34417 0.45511,0.81047 0.40727,1.71177 -0.0611,1.15187 0.0375,1.36467 1.40621,3.0345 1.11445,1.35962 1.47195,2.00415 1.47195,2.65379 0,0.57313 0.21963,1.06435 0.66146,1.47943 0.76072,0.71465 0.82075,1.44254 0.34687,4.20598 -0.30678,1.78898 -0.29727,1.86074 0.3828,2.88839 0.38357,0.57961 1.19907,1.39337 1.81223,1.80838 0.80363,0.54391 1.43931,1.3454 2.27719,2.87121 1.42664,2.59794 2.09636,3.35377 2.46161,2.77812 0.1385,-0.21828 0.25365,-0.88683 0.25588,-1.48567 0.004,-1.04937 0.77724,-2.48308 1.33937,-2.48308 0.56234,0 1.05999,1.67404 1.11785,3.76032 l 0.0604,2.17675 1.05833,0.31842 c 1.46693,0.44136 1.35967,0.46819 2.53093,-0.63309 z M 94.076576,149.06027 c 0.89285,-1.3859 1.63075,-1.8734 4.26022,-2.81448 1.729924,-0.61914 3.603404,-2.13382 3.603404,-2.9133 0,-0.69474 0.71226,-0.91043 1.28746,-0.38987 0.2607,0.23592 0.595,0.42896 0.74289,0.42896 0.55228,0 1.21587,-1.07828 1.27161,-2.06628 0.0317,-0.5621 0.30973,-1.36893 0.6178,-1.79297 0.37129,-0.51104 0.73652,-1.78242 1.08333,-3.77109 0.28775,-1.65007 0.70853,-3.28299 0.93505,-3.62871 0.22653,-0.34572 0.41186,-0.8768 0.41186,-1.18017 0,-0.30337 0.41672,-0.98067 0.92605,-1.50511 0.53231,-0.54811 0.92604,-1.22148 0.92604,-1.58378 0,-0.49346 0.25426,-0.73927 1.17128,-1.13235 0.6442,-0.27614 1.77169,-0.91508 2.50553,-1.41987 1.59283,-1.09567 2.51329,-1.24269 7.45933,-1.19141 2.85,0.0296 3.7552,-0.0505 4.36563,-0.38585 1.46054,-0.80249 7.06753,-1.74565 8.39582,-1.41227 0.3229,0.081 1.13473,0.51009 1.80407,0.95344 0.91655,0.6071 1.70798,0.86835 3.20587,1.05826 1.09389,0.1387 2.62743,0.50084 3.40787,0.80478 0.79004,0.30768 2.86719,0.71837 4.6864,0.92659 3.7626,0.43066 5.00638,0.98353 6.38216,2.83688 0.88094,1.18674 2.88727,5.20854 3.42509,6.86578 0.17399,0.53615 0.78534,1.48865 1.35854,2.11666 l 1.04219,1.14184 0.66075,-0.79374 c 0.36342,-0.43657 1.02658,-1.80579 1.47369,-3.04271 0.44712,-1.23693 1.16242,-2.79517 1.58956,-3.46275 0.42715,-0.66758 0.77663,-1.41531 0.77663,-1.66162 0,-0.2463 0.3146,-1.18838 0.69912,-2.0935 0.58591,-1.3792 0.71964,-2.15977 0.82588,-4.82067 0.12462,-3.12116 0.11545,-3.18622 -0.54108,-3.83646 -0.36732,-0.3638 -1.82334,-1.31305 -3.23559,-2.10945 -2.94784,-1.66232 -4.64773,-3.35555 -5.26125,-5.24061 -0.22357,-0.6869 -0.53356,-2.67765 -0.68889,-4.4239 -0.15532,-1.74625 -0.39233,-3.71078 -0.52669,-4.36563 -0.41155,-2.00585 -0.30645,-3.1155 0.43311,-4.572853 0.4834,-0.952569 0.70886,-1.827784 0.72761,-2.824488 0.0271,-1.441945 0.0253,-1.445244 -1.1399,-2.093836 -2.74429,-1.527532 -4.23822,-1.187945 -5.54295,1.259977 -0.4782,0.897192 -1.15837,1.943008 -1.51149,2.324032 -0.35312,0.381026 -0.64204,0.84165 -0.64204,1.023606 0,0.59808 -1.83957,1.961662 -4.31393,3.197702 -1.33812,0.66845 -3.38766,1.78882 -4.55453,2.48972 -1.16686,0.70089 -2.69535,1.41883 -3.39663,1.59541 -1.55002,0.39031 -4.66405,0.18122 -7.84325,-0.52661 -3.14365,-0.69991 -8.07961,-2.33232 -8.46824,-2.8006 -0.17856,-0.21514 -0.78202,-0.51433 -1.34104,-0.66486 -2.09034,-0.56287 -5.24218,-3.746102 -5.81983,-5.877794 -0.53461,-1.972866 -0.16554,-6.034135 0.82387,-9.06586 0.75329,-2.308236 0.86673,-3.022791 0.88904,-5.600142 0.0141,-1.62487 -0.0402,-3.020155 -0.12055,-3.100636 -0.0804,-0.08048 -1.80677,-0.380595 -3.83645,-0.666922 -6.37737,-0.89965 -8.66744,-1.57121 -11.336964,-3.324559 -0.97801,-0.64236 -2.18769,-1.303072 -2.68819,-1.468249 -1.15593,-0.381492 -1.15136,-0.714597 0.0165,-1.202555 2.27958,-0.952468 4.698564,-1.276027 9.524574,-1.273993 7.57515,0.0032 14.61026,0.714939 16.52208,1.671545 0.51723,0.258805 1.49612,0.54337 2.17529,0.632365 0.68633,0.08993 1.7965,0.517985 2.4992,0.963623 0.69538,0.440999 1.62797,0.80704 2.07242,0.813427 0.89484,0.01286 1.10063,0.08427 6.30461,2.187869 2.00443,0.810249 4.32615,1.867222 5.15937,2.348828 0.83322,0.481607 2.00406,1.066083 2.60186,1.298836 0.5978,0.232757 2.80046,1.538976 4.89479,2.902715 6.28717,4.09393 11.03088,6.230998 15.84642,7.138919 2.35258,0.443553 7.90318,0.478483 8.64392,0.0544 0.7001,-0.400823 0.97423,-1.251876 1.54022,-4.781669 0.39857,-2.485713 0.40049,-2.78575 0.0215,-3.364127 -0.22884,-0.349258 -0.41246,-1.085688 -0.40803,-1.636511 0.007,-0.808747 0.06,-0.912381 0.27773,-0.538475 0.14832,0.254662 0.38283,0.463021 0.52112,0.463021 0.37779,0 0.29514,-1.101587 -0.13896,-1.852083 -0.71829,-1.241827 -0.73165,-1.343144 -0.24753,-1.87809 0.40489,-0.447397 0.42333,-0.57333 0.11209,-0.765685 -0.31277,-0.193305 -0.26866,-0.561928 0.2751,-2.298951 0.58679,-1.874462 0.64513,-2.491124 0.62119,-6.566649 -0.0149,-2.536976 -0.16122,-4.979559 -0.33562,-5.602687 -0.38899,-1.38987 -2.3423,-4.012732 -3.67743,-4.937977 -1.02231,-0.708464 -2.52995,-0.940731 -2.84086,-0.437663 -0.32936,0.532905 -1.72135,1.054925 -4.27237,1.602203 -1.4331,0.307445 -3.12678,0.786675 -3.76375,1.064953 -1.41098,0.616439 -1.97654,0.635905 -2.43474,0.08381 -0.4821,-0.580898 -1.91829,-0.321813 -4.49419,0.810746 -1.12111,0.492924 -2.73263,1.024565 -3.58116,1.181423 -1.05572,0.19516 -1.87953,0.556168 -2.60951,1.143529 l -1.06675,0.858333 -4.23402,0.202252 c -2.32871,0.111239 -4.5912,0.190434 -5.02776,0.175991 -2.05329,-0.06794 -2.48417,-0.0091 -3.96875,0.541975 -1.79664,0.666906 -6.74688,1.099119 -6.74688,0.589079 0,-0.158094 0.11906,-0.361027 0.26459,-0.450964 0.14552,-0.08994 0.26458,-0.387324 0.26458,-0.660861 0,-0.386543 -0.26504,-0.537085 -1.18971,-0.675748 -0.65433,-0.09812 -1.87472,-0.594979 -2.71197,-1.104125 -2.44507,-1.486881 -6.09776,-2.557796 -11.02578,-3.232592 -3.70406,-0.507201 -8.28889,0.713288 -10.866394,2.89264 -0.87084,0.736325 -2.03301,1.459851 -2.5826,1.607841 -0.54958,0.147989 -1.40036,0.621247 -1.8906,1.051687 -0.49024,0.43044 -1.03622,0.782616 -1.21329,0.782616 -0.17706,0 -0.6556,0.357188 -1.06341,0.79375 -0.45092,0.482709 -1.00727,0.79375 -1.41976,0.79375 -0.41416,0 -0.79192,0.212315 -0.97008,0.545222 -0.43314,0.809318 -1.33901,0.543703 -2.08506,-0.611368 -0.35246,-0.545703 -0.77532,-0.992187 -0.93969,-0.992187 -0.16437,0 -0.7695,0.486338 -1.34473,1.080751 -0.57524,0.594416 -1.52214,1.321242 -2.10422,1.61517 -1.76821,0.892879 -4.10104,3.403952 -4.10104,4.414388 0,0.141584 0.3172,0.634392 0.70488,1.095132 0.57972,0.688953 0.84987,0.815639 1.52136,0.713435 1.13064,-0.172087 1.70415,0.200674 2.28836,1.487366 0.82463,1.816235 0.6202,3.965959 -0.48196,5.068126 -1.35666,1.356659 -3.61562,0.521104 -3.93148,-1.454195 -0.09,-0.562523 -0.39864,-1.275117 -0.68598,-1.583542 -1.1804,-1.26701 -2.54716,0.02676 -2.83496,2.68356 -0.10014,0.924467 -0.39939,2.092256 -0.665,2.595084 -0.41111,0.778269 -0.46146,1.329145 -0.33858,3.704166 0.1494,2.887663 0.45173,4.141343 1.28882,5.344319 0.72678,1.044437 0.60956,2.255689 -0.68587,7.087507 -0.64601,2.409567 -1.25402,5.057507 -1.35114,5.884317 l -0.17658,1.50329 -0.57315,-0.66633 c -0.37686,-0.43813 -1.01724,-0.7493 -1.86983,-0.90858 -0.71317,-0.13323 -1.49216,-0.41915 -1.73108,-0.63538 -0.23893,-0.21622 -0.84332,-0.47006 -1.34309,-0.56409 -0.49978,-0.094 -1.16205,-0.40021 -1.47171,-0.6804 -0.561,-0.5076 -0.56605,-0.5058 -1.40031,0.49855 -0.4605,0.55439 -1.20568,1.75199 -1.65596,2.66134 l -0.81869,1.65336 0.65154,0.99247 c 0.35835,0.54587 1.08777,1.67339 1.62093,2.50561 1.39576,2.17867 3.30061,2.95501 3.75302,1.52958 0.16676,-0.52543 1.01637,-0.93268 1.42232,-0.68179 0.13004,0.0804 1.03221,0.25882 2.00482,0.39656 0.97261,0.13774 1.93885,0.39191 2.14718,0.56481 0.5338,0.44301 0.47087,1.04333 -0.10936,1.04333 -0.83237,0 -1.40749,0.93862 -1.60583,2.62078 -0.11474,0.9731 -0.38199,1.80786 -0.68653,2.14437 -0.73148,0.80828 -0.61399,2.24678 0.24883,3.04641 0.86246,0.7993 2.42687,4.01289 2.67719,5.49944 0.10269,0.60983 0.40962,1.39274 0.68206,1.73979 0.27245,0.34704 0.4958,0.82329 0.49635,1.05833 0.002,0.7153 0.88596,1.90785 3.16171,4.2638 2.42845,2.51402 3.17294,3.81128 3.18149,5.54365 0.005,0.9707 -0.14291,1.33147 -0.83923,2.0499 -0.73538,0.7587 -0.81232,0.96638 -0.59289,1.60009 0.32646,0.94277 3.25487,2.92301 4.65329,3.14662 0.69602,0.1113 1.19835,0.38747 1.49595,0.82244 0.8524,1.24583 2.5679,3.0602 3.35848,3.55202 0.90569,0.56343 0.74244,0.68753 2.32283,-1.76562 z"
       id="path5653"
       inkscape:connector-curvature="0" />
  </g>
</svg>
